<?xml version="1.0" standalone="no"?>
<!DOCTYPE svg PUBLIC "-//W3C//DTD SVG 20010904//EN"
 "http://www.w3.org/TR/2001/REC-SVG-20010904/DTD/svg10.dtd">
<svg version="1.0" xmlns="http://www.w3.org/2000/svg"
 width="854.000000pt" height="640.000000pt" viewBox="0 0 854.000000 640.000000"
 preserveAspectRatio="xMidYMid meet">

<g transform="translate(0.000000,640.000000) scale(0.100000,-0.100000)"
fill="#000000" stroke="none">
<path d="M0 3200 l0 -3200 4270 0 4270 0 0 3200 0 3200 -4270 0 -4270 0 0
-3200z m4624 1865 c58 -5 185 -55 206 -80 6 -7 23 -11 40 -9 16 2 32 -2 36 -8
5 -8 -2 -9 -24 -5 -18 4 -32 4 -32 1 0 -3 20 -32 43 -63 34 -44 45 -69 50
-108 4 -33 16 -65 37 -94 30 -44 35 -64 57 -246 3 -23 13 -49 24 -59 23 -21
25 -44 4 -44 -8 0 -24 -15 -35 -32 -24 -40 -27 -98 -5 -98 11 0 15 12 16 43 0
32 2 37 9 22 20 -47 0 -147 -27 -138 -21 7 -27 -26 -9 -46 17 -19 22 -51 7
-51 -5 0 -12 8 -14 18 -4 14 -5 14 -6 -3 -1 -27 -38 -122 -61 -160 -13 -22
-20 -61 -25 -144 -6 -84 -10 -109 -18 -96 -6 11 -7 52 -3 103 6 84 6 84 -16
77 -88 -27 -91 -9 -8 43 91 57 94 68 91 347 -1 144 -11 187 -34 151 -7 -10
-35 -51 -63 -90 -38 -53 -53 -84 -59 -121 -6 -41 -9 -47 -18 -34 -20 26 -63
50 -80 44 -8 -4 -29 1 -45 9 -40 21 -167 25 -210 7 -24 -10 -36 -11 -44 -3 -8
8 -17 8 -32 0 -43 -24 -53 -20 -65 30 -7 26 -26 64 -42 85 -17 21 -28 44 -26
52 8 19 -25 45 -57 45 -34 0 -52 34 -37 73 10 24 31 38 31 20 1 -20 48 -42 75
-35 l27 8 -29 14 c-15 8 -30 16 -32 17 -2 1 2 9 8 17 10 12 18 12 36 4 17 -8
34 -6 67 5 37 13 39 16 16 16 -31 1 -40 31 -10 31 10 0 23 5 29 11 8 8 17 8
33 -1 12 -6 28 -9 36 -6 19 7 44 -3 44 -18 0 -6 -9 -29 -20 -51 -15 -30 -20
-59 -20 -120 l0 -80 52 -23 c28 -13 56 -26 63 -28 7 -3 25 6 40 20 15 14 38
26 50 26 29 0 37 30 19 66 -16 31 -19 56 -3 34 9 -13 10 -13 5 0 -3 8 -13 41
-23 72 -21 68 -36 76 -31 17 4 -49 -14 -66 -56 -55 -26 6 -27 9 -21 47 5 28 2
53 -8 78 -8 20 -20 54 -26 76 -15 55 -82 97 -162 103 -50 4 -62 1 -90 -21
l-33 -26 -23 37 c-31 52 -29 74 17 134 22 29 42 66 46 83 7 33 20 45 79 77 40
22 172 48 210 42 11 -2 47 -5 79 -9z m441 -397 c2 -18 1 -55 -3 -83 l-6 -50
-7 40 c-10 51 -11 120 -2 128 10 11 15 2 18 -35z m-647 2 c57 -35 35 -50 -34
-23 -12 4 -15 3 -10 -6 6 -9 -6 -11 -48 -9 -62 3 -73 18 -28 42 38 21 81 19
120 -4z m-320 -302 c7 -18 9 -85 6 -195 -7 -197 -1 -215 81 -272 28 -19 56
-41 64 -48 27 -28 1 -24 -53 6 -77 44 -104 105 -116 256 -17 211 -19 222 -56
254 -19 15 -34 32 -34 36 0 5 13 -4 29 -19 l29 -27 7 67 c10 97 19 109 26 34
4 -36 11 -77 17 -92z m-81 -100 c-3 -8 -6 -5 -6 6 -1 11 2 17 5 13 3 -3 4 -12
1 -19z m33 -110 c0 -6 -7 -5 -15 2 -8 7 -15 17 -15 22 0 6 7 5 15 -2 8 -7 15
-17 15 -22z m790 -19 c16 -28 -2 -69 -42 -99 -26 -19 -32 -21 -39 -7 -5 8 -20
18 -34 21 -48 12 -23 41 35 41 31 0 36 4 45 33 11 37 20 40 35 11z m-250 1
c-20 -13 -60 -13 -60 0 0 6 17 10 38 10 27 0 33 -3 22 -10z m293 -20 c-7 -28
-13 -25 -13 6 0 14 4 23 9 20 5 -3 7 -15 4 -26z m-543 -40 c21 0 28 -24 10
-35 -26 -16 -75 39 -63 71 5 14 8 13 20 -10 8 -15 22 -26 33 -26z m385 -76
c34 0 40 -4 43 -24 3 -15 -3 -29 -14 -37 -21 -15 -70 -17 -79 -3 -3 6 -18 10
-33 10 -15 1 -44 7 -65 14 -20 8 -40 10 -43 5 -2 -5 -23 -7 -44 -5 -23 2 -44
-2 -50 -9 -5 -6 -23 -10 -40 -7 -40 6 -37 35 5 42 17 3 41 13 55 22 16 11 59
20 120 25 90 8 95 7 100 -12 5 -16 15 -20 45 -21z m-644 -258 c11 -38 3 -46
-17 -18 -8 12 -24 22 -35 22 -24 0 -25 17 -1 23 32 9 46 2 53 -27z m965 16
c14 -9 47 -115 34 -107 -6 4 -10 1 -10 -5 0 -6 7 -13 15 -16 14 -6 48 -82 44
-100 -4 -15 17 -58 37 -76 23 -20 41 -27 204 -82 274 -93 265 -90 291 -72 15
10 44 16 81 16 32 0 58 2 58 5 0 3 -9 24 -20 46 -11 21 -20 54 -18 72 1 24 -6
41 -30 67 -31 33 -42 70 -22 70 6 0 10 -11 10 -23 0 -13 9 -32 19 -41 16 -14
23 -15 41 -6 20 11 32 1 142 -107 66 -65 131 -134 144 -155 16 -25 42 -45 86
-66 72 -34 93 -55 137 -134 33 -61 41 -87 15 -50 -8 12 -20 20 -25 17 -5 -4
-9 2 -9 12 -1 21 -29 74 -30 56 0 -17 -20 -17 -20 0 0 15 -147 82 -200 91 -43
8 -92 -23 -73 -46 9 -10 8 -18 -3 -32 -8 -11 -14 -32 -14 -48 0 -22 -4 -26
-17 -21 -15 5 -16 3 -5 -8 17 -19 15 -24 -15 -38 -27 -12 -27 -12 -10 6 16 18
16 21 -3 41 -12 12 -26 22 -33 22 -7 0 -6 -4 3 -10 8 -5 10 -10 4 -10 -6 0
-18 8 -28 18 -9 11 -40 24 -70 31 -29 6 -61 18 -71 25 -17 12 -16 16 9 79 14
36 26 70 26 76 0 23 -33 9 -69 -30 -30 -33 -42 -40 -55 -32 -15 8 -15 11 4 28
11 10 20 22 20 27 0 4 -35 8 -77 9 -43 1 -68 4 -55 7 27 8 29 12 16 33 -9 16
-75 44 -129 54 -16 4 -92 9 -168 12 l-138 6 38 18 c21 10 51 20 66 24 l29 6
-33 22 c-18 12 -46 39 -63 60 -30 38 -30 39 -12 53 19 13 19 14 -6 14 -21 0
-28 6 -33 31 -6 25 -11 30 -27 26 -20 -6 -20 -6 0 16 11 12 24 34 27 50 6 24
4 27 -17 27 -13 0 -29 -5 -35 -11 -22 -22 -32 -5 -18 29 14 31 36 40 61 24z
m-886 -59 c0 -33 -3 -44 -11 -36 -9 9 -3 83 7 83 2 0 4 -21 4 -47z m-127 -64
c16 -14 17 -17 5 -13 -12 4 -21 -2 -30 -20 -7 -17 -18 -26 -29 -24 -10 2 -25
-6 -33 -17 -23 -31 -20 2 6 65 18 43 23 49 30 34 6 -16 7 -15 6 6 -1 14 2 36
8 50 8 23 9 21 12 -19 2 -30 10 -50 25 -62z m-53 -93 c0 -13 -83 -96 -95 -96
-4 0 13 27 36 60 39 55 59 68 59 36z m-83 -117 c7 -7 29 -15 49 -18 20 -3 37
-10 36 -16 0 -5 3 -15 8 -20 5 -7 -7 -9 -36 -6 -24 1 -52 0 -62 -5 -9 -4 -73
-17 -142 -29 -69 -13 -145 -28 -170 -35 l-45 -13 35 -10 c31 -8 33 -10 15 -18
-11 -4 -46 -8 -79 -8 -52 -1 -58 -3 -53 -20 2 -10 1 -24 -3 -31 -9 -15 -53 38
-46 57 10 24 -13 24 -29 -1 -13 -19 -15 -38 -10 -83 8 -68 5 -73 -68 -97 -27
-9 -61 -23 -77 -31 -42 -22 -51 -17 -10 5 29 16 31 19 13 20 -12 0 -25 5 -28
10 -3 6 -15 10 -25 10 -11 0 -31 5 -45 12 -22 10 -24 16 -19 45 5 28 3 34 -16
41 -19 7 -20 10 -7 21 9 7 46 25 84 41 37 16 61 30 53 30 -12 0 -12 2 -2 9 10
6 6 10 -15 14 -30 6 -173 -28 -267 -63 -71 -27 -172 -120 -182 -168 -4 -17
-10 -32 -15 -32 -5 0 -13 -9 -19 -21 -9 -16 -8 -20 2 -17 23 5 24 -6 2 -34
-18 -23 -26 -26 -58 -21 -20 3 -36 10 -36 15 0 5 -9 22 -21 37 -19 26 -20 31
-6 57 26 50 57 77 73 63 7 -6 11 -16 7 -22 -4 -7 -9 -4 -13 7 -5 16 -7 16 -22
-1 -40 -46 -50 -99 -20 -110 9 -3 25 -13 35 -21 9 -8 18 -13 20 -11 1 2 15 33
31 69 70 162 100 198 201 246 31 15 55 33 55 41 0 10 6 13 15 9 9 -3 44 1 78
9 115 27 280 12 328 -31 8 -8 21 -14 27 -14 20 0 237 73 258 87 22 14 166 60
195 62 8 1 20 -4 26 -10z m742 -35 c2 -2 -16 -4 -42 -4 -25 0 -49 4 -52 10 -6
9 83 3 94 -6z m57 -127 c-2 -29 -6 -81 -10 -117 l-7 -65 28 72 c31 79 46 101
43 63 -1 -14 -1 -34 -1 -45 2 -19 3 -19 18 3 17 25 53 30 53 7 0 -8 5 -15 11
-15 5 0 8 -4 5 -9 -3 -5 1 -23 10 -40 19 -38 60 -58 86 -42 10 6 19 7 23 1 3
-5 -9 -17 -27 -27 -18 -9 -55 -30 -83 -45 -27 -15 -69 -37 -92 -50 -24 -12
-43 -26 -43 -30 0 -12 14 -10 36 7 10 8 25 15 33 15 7 0 27 12 44 26 17 14 38
23 47 21 9 -2 22 4 29 15 18 30 52 18 85 -30 24 -34 28 -46 20 -60 -6 -9 -15
-17 -21 -17 -5 0 -22 -13 -37 -30 l-28 -30 6 31 c6 25 3 32 -17 43 -34 18 -63
6 -76 -31 -13 -38 -15 -100 -2 -79 5 7 14 12 20 10 6 -2 -2 -16 -19 -31 l-30
-26 -1 51 c0 29 -4 61 -8 72 -7 16 -10 11 -16 -25 -8 -49 -24 -87 -25 -60 -1
28 -30 -22 -31 -54 -1 -30 -1 -30 -8 -6 -6 22 -8 23 -14 7 -4 -10 -7 -27 -7
-38 0 -10 -4 -19 -9 -19 -6 0 -12 -19 -14 -42 -2 -24 -5 7 -6 67 l-3 110 -22
-115 c-26 -131 -33 -150 -52 -150 -8 0 -14 -6 -14 -12 -1 -7 -11 0 -25 16 -13
16 -33 30 -45 31 -39 3 -39 5 -69 240 l-8 70 -2 -76 c0 -42 -4 -105 -8 -140
l-6 -64 -13 63 c-15 72 -47 142 -81 174 l-23 21 -1 -34 c-1 -19 -1 -40 0 -46
1 -7 -3 -13 -9 -13 -5 0 -10 3 -11 8 0 4 -2 26 -4 50 -4 55 -19 74 -53 65 -18
-4 -23 -3 -17 6 5 9 0 12 -16 9 -18 -2 -23 -9 -22 -26 3 -28 2 -28 -31 3 -19
18 -25 30 -18 38 5 7 12 20 16 31 5 14 3 17 -11 12 -13 -5 -11 0 6 18 29 31
32 31 57 9 17 -16 187 -104 199 -103 23 1 -14 25 -127 83 -157 80 -168 89
-112 86 28 -2 47 3 59 14 9 9 22 17 28 17 7 0 4 5 -5 11 -10 5 -18 15 -18 21
0 9 3 9 12 0 17 -17 29 -15 22 3 -9 23 5 65 21 65 8 0 24 -9 35 -20 25 -25 30
-25 30 -1 0 25 27 35 39 13 4 -9 17 -42 27 -72 16 -48 19 -51 22 -27 2 15 -1
51 -7 78 -26 118 -12 133 119 131 47 0 101 3 120 7 53 12 59 6 56 -52z m46 21
c-7 -7 -12 -8 -12 -2 0 6 3 14 7 17 3 4 9 5 12 2 2 -3 -1 -11 -7 -17z m-1698
-53 c-10 -8 -23 -14 -29 -14 -5 0 -1 6 9 14 11 8 24 15 30 15 5 0 1 -7 -10
-15z m-4 -34 c0 -16 -27 -31 -44 -25 -15 6 -15 8 1 20 21 15 43 18 43 5z
m2035 -11 c2 -3 -17 -7 -42 -7 -38 0 -43 2 -29 12 16 12 62 9 71 -5z m-1035 0
c-8 -5 -26 -10 -40 -10 -20 0 -22 2 -10 10 8 5 26 10 40 10 20 0 22 -2 10 -10z
m83 -8 c15 -10 24 -21 21 -25 -9 -8 -74 25 -68 35 8 12 16 10 47 -10z m857 8
c0 -9 -51 -40 -65 -40 -9 0 17 24 40 38 25 14 25 14 25 2z m-1283 -142 c4 -7
9 -21 10 -31 3 -15 0 -16 -16 -7 -25 13 -34 27 -26 40 8 14 22 13 32 -2z
m1709 1 c7 -12 -16 -30 -55 -41 -23 -7 -23 -6 4 22 31 33 40 36 51 19z m968
-15 c9 -33 0 -60 -31 -101 -29 -40 -51 -42 -59 -5 -3 15 -7 33 -10 40 -4 13
18 17 30 5 28 -28 61 9 51 58 -8 36 10 39 19 3z m-2275 -27 c-59 -53 -71 -59
-36 -19 20 23 37 47 37 54 0 9 3 9 12 0 10 -10 7 -17 -13 -35z m1681 27 c39
-8 72 -20 75 -25 4 -5 -3 -5 -17 0 -13 5 -58 12 -101 16 -42 4 -74 11 -71 16
8 13 36 11 114 -7z m-2450 -10 c-37 -8 -88 -9 -84 -2 3 4 26 7 52 7 26 -1 40
-3 32 -5z m406 -31 c-10 -10 -19 5 -10 18 6 11 8 11 12 0 2 -7 1 -15 -2 -18z
m234 -5 c0 -6 -6 -5 -15 2 -8 7 -15 14 -15 16 0 2 7 1 15 -2 8 -4 15 -11 15
-16z m-810 8 c0 -11 -19 -15 -25 -6 -3 5 1 10 9 10 9 0 16 -2 16 -4z m2690
-36 c-20 -13 -33 -13 -25 0 3 6 14 10 23 10 15 0 15 -2 2 -10z m-40 -15 c0 -2
-10 -10 -22 -16 -21 -11 -22 -11 -9 4 13 16 31 23 31 12z m-50 -29 c0 -2 -7
-7 -16 -10 -8 -3 -12 -2 -9 4 6 10 25 14 25 6z m-436 -70 c-10 -8 -21 -12 -24
-10 -5 6 21 24 34 24 6 0 1 -6 -10 -14z m-1529 -6 c8 -13 -5 -13 -25 0 -13 8
-13 10 2 10 9 0 20 -4 23 -10z m405 -18 c0 -11 -48 -34 -80 -38 -14 -1 -50
-11 -80 -22 -45 -16 -55 -23 -53 -41 2 -11 -2 -21 -7 -21 -6 0 -10 8 -10 19 0
18 -2 18 -41 4 -23 -7 -44 -11 -47 -9 -3 3 1 8 9 10 93 33 202 69 233 77 22 5
46 14 55 19 20 12 21 12 21 2z m-1556 -98 c-21 -45 -25 -61 -16 -75 7 -10 8
-20 4 -23 -4 -2 -15 8 -24 24 -16 27 -15 30 8 61 13 18 29 48 36 68 8 23 13
30 16 19 2 -9 -9 -42 -24 -74z m2420 45 c8 -9 6 -10 -9 -5 -22 9 -44 14 -61
15 -5 1 -19 8 -30 16 -17 12 -12 12 35 0 30 -8 59 -19 65 -26z m-1421 -47
c-57 -57 -99 -85 -91 -60 2 6 13 16 23 22 11 6 42 30 70 54 27 23 51 42 53 42
2 0 -23 -26 -55 -58z m2717 29 c6 -17 9 -36 4 -43 -4 -7 -4 -10 1 -6 11 10 48
-40 39 -54 -5 -8 -2 -9 9 -5 11 4 14 2 11 -8 -3 -7 -12 -16 -20 -19 -11 -4
-14 -35 -15 -148 l-2 -143 -9 140 c-5 77 -13 142 -18 143 -6 2 -10 11 -10 19
0 9 6 13 14 10 23 -9 30 26 9 43 -18 15 -46 100 -33 100 4 0 13 -13 20 -29z
m-911 5 c9 -10 8 -15 -2 -19 -8 -3 -13 3 -14 14 -2 23 1 24 16 5z m-1349 0 c0
-2 -11 -11 -25 -20 -31 -20 -58 -10 -30 11 17 12 55 18 55 9z m965 -16 c3 -5
2 -10 -4 -10 -5 0 -13 5 -16 10 -3 6 -2 10 4 10 5 0 13 -4 16 -10z m145 -16
c0 -2 -13 -2 -28 -1 -16 1 -29 7 -29 13 0 9 8 9 29 2 15 -6 28 -12 28 -14z
m635 6 c3 -6 -1 -7 -9 -4 -18 7 -21 14 -7 14 6 0 13 -4 16 -10z m-1895 -34 c0
-8 -5 -18 -12 -22 -7 -4 -8 -3 -4 4 4 7 2 12 -4 12 -6 0 -8 5 -5 10 9 15 25
12 25 -4z m1255 4 c3 -5 -1 -10 -9 -10 -8 0 -18 5 -21 10 -3 6 1 10 9 10 8 0
18 -4 21 -10z m69 -5 c11 -8 18 -17 15 -19 -2 -2 -15 4 -28 15 -27 22 -15 26
13 4z m276 -20 c8 -9 8 -15 0 -20 -13 -8 -27 1 -40 25 -8 15 -7 17 10 13 11
-3 24 -11 30 -18z m-2014 -72 c-11 -11 -19 6 -11 24 8 17 8 17 12 0 3 -10 2
-21 -1 -24z m2069 11 c9 -15 12 -23 6 -20 -11 7 -35 46 -28 46 3 0 12 -12 22
-26z m-1861 3 c-4 -12 -44 -42 -44 -32 0 4 42 45 47 45 1 0 0 -6 -3 -13z
m-1117 -69 c-2 -13 -4 -3 -4 22 0 25 2 35 4 23 2 -13 2 -33 0 -45z m3402 28
c-3 -3 -11 5 -18 17 -13 21 -12 21 5 5 10 -10 16 -20 13 -22z m-2536 -11 c-17
-23 -33 -32 -33 -19 0 5 41 43 48 44 2 0 -5 -11 -15 -25z m2157 5 c0 -5 -2
-10 -4 -10 -3 0 -8 5 -11 10 -3 6 -1 10 4 10 6 0 11 -4 11 -10z m-20 -14 c0
-3 -4 -8 -10 -11 -5 -3 -10 -1 -10 4 0 6 5 11 10 11 6 0 10 -2 10 -4z m68 -41
c-3 -3 -13 7 -23 22 l-17 28 23 -22 c12 -12 20 -25 17 -28z m-2708 21 c0 -2
-8 -10 -17 -17 -16 -13 -17 -12 -4 4 13 16 21 21 21 13z m3020 -6 c0 -5 -2
-10 -4 -10 -3 0 -8 5 -11 10 -3 6 -1 10 4 10 6 0 11 -4 11 -10z m-2360 -4 c0
-2 -28 -22 -61 -46 -34 -24 -57 -35 -52 -26 11 19 113 85 113 72z m1893 -35
c21 -14 25 -20 14 -24 -16 -6 -57 18 -57 34 0 14 12 11 43 -10z m-1524 -33
c-13 -5 -37 -6 -53 -2 l-31 7 40 12 c28 8 44 8 53 1 11 -8 9 -12 -9 -18z
m1125 26 c9 -3 16 -9 16 -13 0 -10 -69 -1 -76 10 -6 10 36 12 60 3z m96 -4 c0
-5 -5 -10 -11 -10 -5 0 -7 5 -4 10 3 6 8 10 11 10 2 0 4 -4 4 -10z m-1330 -16
c0 -8 -5 -12 -10 -9 -6 4 -8 11 -5 16 9 14 15 11 15 -7z m-320 -14 c0 -5 -5
-10 -11 -10 -5 0 -7 5 -4 10 3 6 8 10 11 10 2 0 4 -4 4 -10z m2160 -11 c0 -6
-4 -7 -10 -4 -5 3 -10 11 -10 16 0 6 5 7 10 4 6 -3 10 -11 10 -16z m-3181 -90
c-30 -59 -9 -74 27 -20 15 23 29 39 31 37 5 -5 -69 -136 -77 -136 -3 0 -6 19
-7 43 -2 42 22 117 39 117 4 0 -1 -19 -13 -41z m3890 -49 c-1 -23 -2 -23 -9 5
-20 73 -21 82 -6 50 9 -16 15 -41 15 -55z m-2842 64 c-3 -3 -12 -4 -19 -1 -8
3 -5 6 6 6 11 1 17 -2 13 -5z m-797 -54 c-6 -11 -13 -20 -16 -20 -2 0 0 9 6
20 6 11 13 20 16 20 2 0 0 -9 -6 -20z m520 11 c0 -5 -7 -14 -15 -21 -12 -10
-15 -10 -15 2 0 8 3 18 7 21 9 10 23 9 23 -2z m1603 -8 c-7 -2 -19 -2 -25 0
-7 3 -2 5 12 5 14 0 19 -2 13 -5z m251 -1 c5 -9 -113 -6 -122 3 -3 3 22 5 56
5 33 0 63 -4 66 -8z m76 4 c0 -3 -4 -8 -10 -11 -5 -3 -10 -1 -10 4 0 6 5 11
10 11 6 0 10 -2 10 -4z m-1240 -26 c0 -5 -13 -10 -29 -10 -17 0 -33 5 -36 10
-4 6 8 10 29 10 20 0 36 -4 36 -10z m2427 -79 c14 -25 18 -39 10 -31 -16 16
-67 106 -67 118 0 10 30 -36 57 -87z m-619 54 c-3 -3 -9 2 -12 12 -6 14 -5 15
5 6 7 -7 10 -15 7 -18z m-3064 -35 c-15 -28 -29 -48 -31 -46 -5 5 46 96 54 96
2 0 -8 -23 -23 -50z m-243 -27 c-5 -10 -17 -27 -26 -38 -16 -19 -17 -19 -3 5
26 46 29 50 34 50 3 0 0 -8 -5 -17z m126 -5 c-3 -8 -6 -5 -6 6 -1 11 2 17 5
13 3 -3 4 -12 1 -19z m3680 -10 c-3 -8 -6 -5 -6 6 -1 11 2 17 5 13 3 -3 4 -12
1 -19z m-2957 7 c0 -2 -10 -9 -22 -15 -22 -11 -22 -10 -4 4 21 17 26 19 26 11z
m-200 -31 c0 -11 -5 -14 -16 -10 -10 4 -25 -1 -37 -11 -19 -18 -20 -17 -6 5 9
14 21 21 32 18 9 -2 17 0 17 5 0 5 2 9 5 9 3 0 5 -7 5 -16z m2715 -14 c96 -36
103 -53 10 -25 -27 8 -51 12 -55 10 -4 -2 -18 7 -31 22 -28 30 -26 30 76 -7z
m-2589 5 c-11 -8 -35 -15 -54 -15 -18 0 -43 -5 -54 -11 -14 -7 -23 -8 -31 0
-7 7 -2 11 14 15 13 3 42 9 64 14 22 6 49 10 60 11 20 0 20 0 1 -14z m2710
-46 c31 -61 14 -47 -32 26 -17 28 -17 29 -1 16 10 -8 25 -27 33 -42z m329 11
c9 -39 155 -186 194 -195 22 -5 30 -13 35 -36 4 -19 16 -36 37 -47 47 -26 119
-82 119 -92 0 -6 -31 -10 -68 -10 -63 0 -70 2 -98 31 -32 33 -133 103 -140 97
-2 -3 16 -19 41 -38 43 -33 85 -75 85 -86 0 -3 -26 16 -57 44 -32 27 -77 59
-100 71 -42 21 -56 41 -30 41 6 0 4 5 -6 11 -9 5 -22 7 -28 4 -6 -4 -19 1 -29
10 -10 9 -27 15 -37 13 -13 -3 -6 -11 29 -32 48 -28 68 -60 50 -78 -12 -12
-35 -1 -27 13 4 5 -5 13 -19 19 -14 5 -26 13 -26 18 0 4 -45 35 -100 67 -91
53 -122 75 -105 75 3 0 42 -18 86 -41 64 -32 84 -38 95 -28 8 7 29 9 49 6 28
-5 35 -2 35 10 0 14 3 13 22 -3 13 -10 17 -12 11 -4 -7 9 -17 28 -22 43 -10
25 -9 27 9 17 23 -12 22 2 -9 73 -23 53 -26 71 -12 62 5 -3 12 -19 16 -35z
m-3880 -20 c-14 -22 -35 -69 -46 -105 -12 -36 -24 -63 -26 -61 -9 9 37 131 62
169 34 50 42 47 10 -3z m4053 -5 c-3 -3 -9 2 -12 12 -6 14 -5 15 5 6 7 -7 10
-15 7 -18z m-3958 -29 c0 -3 -4 -8 -10 -11 -5 -3 -10 -1 -10 4 0 6 5 11 10 11
6 0 10 -2 10 -4z m63 -31 c-4 -23 -2 -35 6 -35 6 0 11 3 11 8 1 4 12 21 26 37
l25 30 -21 -48 c-11 -27 -20 -53 -20 -58 0 -12 62 1 81 17 8 8 22 14 30 15 10
0 10 2 2 6 -15 5 1 43 18 43 6 0 6 -8 -2 -21 -10 -19 -8 -20 10 -14 33 10 25
-3 -11 -19 -33 -14 -33 -14 -6 -15 15 -1 39 4 54 9 20 8 36 8 55 0 24 -10 37
-7 106 27 43 21 82 40 86 42 5 2 3 -5 -3 -16 -7 -10 -21 -20 -32 -20 -11 -1
-28 -8 -37 -16 -9 -8 -46 -31 -83 -51 -36 -20 -72 -43 -78 -52 -7 -8 -21 -12
-31 -9 -14 5 -18 -1 -21 -27 -3 -27 -6 -30 -12 -15 -14 31 17 83 58 98 20 7
36 17 36 21 0 12 -11 9 -65 -20 -55 -30 -66 -57 -46 -113 8 -23 8 -30 -1 -27
-15 5 -30 57 -24 81 6 23 -3 22 -47 -9 -21 -14 -43 -23 -50 -21 -7 2 3 13 20
23 18 11 33 23 33 28 0 5 -6 4 -13 -2 -7 -6 -38 -20 -69 -32 -31 -11 -61 -27
-68 -35 -6 -8 -28 -19 -48 -26 -20 -7 -39 -15 -42 -18 -16 -19 -121 -61 -153
-61 -37 0 -38 1 -23 21 8 12 30 32 49 45 21 14 40 38 47 58 6 20 16 33 23 30
20 -7 73 32 103 78 24 35 75 73 131 97 1 1 -1 -15 -4 -34z m3424 -27 c-3 -8
-6 -5 -6 6 -1 11 2 17 5 13 3 -3 4 -12 1 -19z m-2507 -42 c0 -2 -7 -7 -16 -10
-8 -3 -12 -2 -9 4 6 10 25 14 25 6z m2167 -32 c-3 -3 -12 -4 -19 -1 -8 3 -5 6
6 6 11 1 17 -2 13 -5z m-593 -179 c-4 -8 -11 -15 -16 -15 -6 0 -5 6 2 15 7 8
14 15 16 15 2 0 1 -7 -2 -15z"/>
<path d="M4725 4743 c-11 -3 -33 -16 -48 -29 -16 -13 -32 -24 -36 -24 -9 0
-31 -60 -31 -84 0 -13 5 -16 17 -12 9 4 20 1 24 -6 6 -9 15 -10 36 -2 20 7 35
6 53 -3 14 -6 33 -14 43 -17 35 -11 18 -29 -23 -23 -22 3 -40 1 -40 -4 0 -14
47 -22 96 -16 33 3 49 0 61 -11 12 -12 19 -13 34 -4 26 17 29 16 40 -18 15
-41 32 -27 24 20 -10 58 -62 150 -111 198 -45 43 -76 50 -139 35z m84 -68 c16
-8 31 -23 34 -35 5 -21 -8 -26 -31 -11 -7 4 -33 5 -57 1 -35 -5 -43 -4 -34 6
8 10 1 11 -31 7 -48 -7 -51 1 -7 27 38 24 87 26 126 5z"/>
<path d="M3980 3629 c0 -5 5 -7 10 -4 6 3 10 8 10 11 0 2 -4 4 -10 4 -5 0 -10
-5 -10 -11z"/>
<path d="M2404 1875 c-24 -18 -7 -19 26 0 16 9 19 14 9 15 -8 0 -24 -7 -35
-15z"/>
</g>
</svg>
